<svg width="58" height="58" viewBox="0 0 58 58" fill="none" xmlns="http://www.w3.org/2000/svg">
<path d="M46.5201 20.4722C45.9408 20.2743 45.3574 20.0901 44.7699 19.9194C44.8673 19.5229 44.9572 19.1241 45.0395 18.7231C46.3649 12.2774 45.4983 7.08462 42.5405 5.3752C39.7085 3.73489 35.0639 5.4443 30.3786 9.53149C29.918 9.93477 29.4667 10.3501 29.0249 10.7776C28.7304 10.4936 28.4283 10.2157 28.1187 9.94384C23.2079 5.57345 18.2859 3.73263 15.3315 5.4477C12.4995 7.09141 11.6578 11.9727 12.8506 18.082C12.9699 18.6861 13.104 19.2877 13.2528 19.8865C12.5758 20.0785 11.9045 20.29 11.2398 20.5209C5.48961 22.5316 1.8125 25.6843 1.8125 28.9536C1.8125 32.3316 5.75922 35.7187 11.7552 37.7725C12.2415 37.9379 12.7324 38.0916 13.2279 38.2336C13.067 38.8747 12.9246 39.5231 12.8008 40.1786C11.668 46.1825 12.5516 50.9482 15.3779 52.5818C18.2972 54.2685 23.1943 52.5353 27.968 48.3552C28.3456 48.0245 28.7232 47.6752 29.1008 47.3074C29.5781 47.7688 30.069 48.2167 30.5735 48.6509C35.1954 52.6361 39.7595 54.2459 42.5813 52.6078C45.4983 50.9154 46.4464 45.7951 45.2151 39.5657C45.1207 39.09 45.0119 38.6044 44.8888 38.109C45.2332 38.007 45.5704 37.9016 45.9004 37.7929C52.1309 35.7232 56.1898 32.3769 56.1898 28.957C56.1875 25.6718 52.3926 22.4988 46.5201 20.4722ZM31.9068 11.2874C35.9204 7.78583 39.6722 6.4038 41.3828 7.39161C43.2032 8.44399 43.9112 12.6875 42.7671 18.253C42.6915 18.6155 42.61 18.9769 42.5224 19.3371C40.1272 18.7923 37.6983 18.4078 35.252 18.1862C33.8513 16.1685 32.3159 14.2478 30.6562 12.4372C31.0625 12.0429 31.4786 11.6597 31.9045 11.2874H31.9068ZM17.8679 31.7471C18.3595 32.6986 18.8734 33.6385 19.4096 34.5666C19.9556 35.5137 20.5247 36.4467 21.1168 37.3658C19.4335 37.1828 17.7607 36.9132 16.1052 36.5581C16.5855 35.0039 17.1768 33.3897 17.8679 31.7471ZM17.8679 26.2722C17.1882 24.6647 16.6127 23.0833 16.1403 21.5563C17.6923 21.2085 19.3462 20.9242 21.0703 20.709C20.4926 21.6107 19.9367 22.5256 19.4028 23.4538C18.8689 24.3819 18.3561 25.3214 17.8645 26.2722H17.8679ZM19.1026 29.0102C19.8186 27.5172 20.5896 26.0528 21.4158 24.6172C22.2413 23.1823 23.1199 21.7802 24.0519 20.411C25.6695 20.2887 27.328 20.2241 29.0034 20.2241C30.6788 20.2241 32.3475 20.2887 33.964 20.4122C34.8861 21.7783 35.7595 23.1755 36.5842 24.6036C37.4089 26.0317 38.1901 27.4892 38.928 28.9762C38.1999 30.4745 37.4206 31.9449 36.5898 33.3874C35.7659 34.8223 34.8974 36.2285 33.9844 37.606C32.3701 37.7193 30.6992 37.7816 29 37.7816C27.3008 37.7816 25.6616 37.7283 24.0768 37.6252C23.1381 36.2515 22.2522 34.8434 21.4192 33.401C20.5862 31.9585 19.8129 30.4949 19.0992 29.0102H19.1026ZM38.6006 34.5508C39.1481 33.6007 39.6737 32.6382 40.1775 31.6632C40.868 33.2289 41.4775 34.829 42.0036 36.4573C40.3285 36.8345 38.6349 37.1238 36.9297 37.3239C37.5052 36.4109 38.0621 35.4865 38.6006 34.5508ZM40.1548 26.2733C39.6533 25.318 39.1319 24.374 38.5904 23.4413C38.0617 22.5215 37.5108 21.6129 36.9376 20.7157C38.672 20.9355 40.3361 21.2278 41.8959 21.5846C41.3944 23.1757 40.8133 24.7406 40.1548 26.2733ZM29.0261 14.1013C30.1572 15.3373 31.2253 16.6296 32.2263 17.9732C30.0852 17.8713 27.9427 17.8713 25.7987 17.9732C26.8556 16.5753 27.9374 15.2783 29.0261 14.1013ZM16.5005 7.46071C18.3198 6.40493 22.3425 7.91384 26.5826 11.6827C26.8533 11.924 27.1263 12.1766 27.3982 12.4383C25.73 14.2487 24.1837 16.1677 22.7695 18.1828C20.3286 18.4027 17.9046 18.7811 15.5127 19.3156C15.3745 18.7598 15.2499 18.2002 15.1389 17.6368C14.1137 12.3998 14.7923 8.45192 16.5005 7.46071ZM13.8486 35.9906C13.3955 35.8615 12.948 35.7214 12.5063 35.5703C9.85547 34.6641 7.66574 33.4814 6.1625 32.1934C4.81672 31.0391 4.13477 29.887 4.13477 28.9536C4.13477 26.97 7.08687 24.4393 12.0101 22.7231C12.6286 22.5079 13.2524 22.3111 13.8815 22.1329C14.6127 24.4827 15.4982 26.7816 16.5323 29.0147C15.4859 31.2787 14.5894 33.609 13.8486 35.9906ZM26.4376 46.6016C24.3271 48.4504 22.2133 49.7611 20.3498 50.4215C18.6755 51.014 17.3422 51.0309 16.5368 50.5654C14.8217 49.5741 14.108 45.7464 15.0811 40.6125C15.1967 40.0083 15.3288 39.4041 15.4776 38.8C17.8934 39.3204 20.3418 39.6757 22.8058 39.8637C24.2338 41.8893 25.7928 43.8192 27.473 45.641C27.1354 45.9729 26.7899 46.2924 26.4376 46.6016ZM29.0906 43.9713C27.9895 42.7807 26.8907 41.4632 25.8191 40.0472C26.8605 40.088 27.9208 40.1084 29 40.1084C30.1079 40.1084 31.2045 40.0846 32.2852 40.0359C31.2878 41.4011 30.2216 42.7146 29.0906 43.9713ZM43.1964 47.21C42.8724 48.959 42.2211 50.1258 41.4156 50.5925C39.7017 51.5872 36.037 50.2946 32.0858 46.886C31.6327 46.4963 31.1795 46.0783 30.7185 45.6399C32.3659 43.8109 33.8884 41.8732 35.2758 39.8399C37.7534 39.63 40.2137 39.2496 42.6391 38.7014C42.7501 39.15 42.8483 39.5895 42.9336 40.02C43.4785 42.7727 43.5566 45.2627 43.1964 47.21ZM45.1675 35.5828C44.8707 35.6813 44.5648 35.7765 44.2545 35.8694C43.4939 33.5085 42.5739 31.2021 41.5006 28.966C42.5336 26.7598 43.4177 24.4868 44.1468 22.1624C44.703 22.3243 45.2434 22.4943 45.7634 22.6744C50.7953 24.4099 53.8652 26.9791 53.8652 28.9536C53.8652 31.0606 50.5495 33.7952 45.1675 35.5828Z" fill="#00D8FF"/>
<path d="M28.9998 33.8201C29.9639 33.8232 30.9072 33.5402 31.7103 33.0069C32.5134 32.4736 33.1403 31.7139 33.5114 30.8241C33.8825 29.9343 33.9812 28.9544 33.7951 28.0085C33.6089 27.0625 33.1462 26.1931 32.4656 25.5103C31.785 24.8275 30.9171 24.3619 29.9718 24.1727C29.0265 23.9835 28.0462 24.079 27.1552 24.4472C26.2642 24.8154 25.5025 25.4397 24.9666 26.2411C24.4306 27.0425 24.1445 27.9849 24.1445 28.949C24.1432 29.5877 24.2678 30.2205 24.5111 30.811C24.7544 31.4016 25.1117 31.9384 25.5627 32.3908C26.0136 32.8432 26.5492 33.2022 27.139 33.4475C27.7287 33.6927 28.3611 33.8194 28.9998 33.8201Z" fill="#00D8FF"/>
</svg>
