<svg width="58" height="58" viewBox="0 0 58 58" fill="none" xmlns="http://www.w3.org/2000/svg">
<g clip-path="url(#clip0_16_181)">
<path d="M29 0C21.3105 0 13.9291 3.05723 8.49609 8.49383C3.05752 13.9326 0.0015065 21.3086 0 29C0 36.6882 3.05859 44.0696 8.49609 49.5062C13.9291 54.9428 21.3105 58 29 58C36.6895 58 44.0709 54.9428 49.5039 49.5062C54.9414 44.0696 58 36.6882 58 29C58 21.3118 54.9414 13.9304 49.5039 8.49383C44.0709 3.05723 36.6895 0 29 0Z" fill="url(#paint0_linear_16_181)"/>
<path d="M13.127 28.6937C21.5823 25.0107 27.2192 22.5824 30.0377 21.4092C38.0942 18.0593 39.7663 17.4775 40.8583 17.4578C41.0984 17.4539 41.6331 17.5133 41.982 17.7953C42.272 18.0332 42.3536 18.3549 42.3944 18.5808C42.4306 18.8065 42.4805 19.3208 42.4397 19.7222C42.0047 24.3079 40.1152 35.4357 39.1545 40.5719C38.7513 42.7451 37.9492 43.4737 37.1744 43.5448C35.4888 43.6998 34.2109 42.432 32.5797 41.363C30.0286 39.6896 28.5877 38.6484 26.1091 37.0158C23.2453 35.1289 25.1031 34.0917 26.7344 32.3971C27.1603 31.9534 34.5825 25.2042 34.723 24.592C34.7411 24.5154 34.7592 24.2299 34.587 24.0795C34.4194 23.9286 34.1702 23.9803 33.9889 24.021C33.7306 24.079 29.657 26.7742 21.7545 32.1062C20.5991 32.9009 19.5523 33.2884 18.6098 33.268C17.5767 33.2458 15.583 32.6825 14.1013 32.2013C12.2888 31.6109 10.8433 31.2987 10.9702 30.2959C11.0336 29.7739 11.7541 29.2397 13.127 28.6937Z" fill="white"/>
</g>
<defs>
<linearGradient id="paint0_linear_16_181" x1="2900" y1="0" x2="2900" y2="5800" gradientUnits="userSpaceOnUse">
<stop stop-color="#2AABEE"/>
<stop offset="1" stop-color="#229ED9"/>
</linearGradient>
<clipPath id="clip0_16_181">
<rect width="58" height="58" fill="white"/>
</clipPath>
</defs>
</svg>
