<svg width="36" height="32" viewBox="0 0 36 32" fill="none" xmlns="http://www.w3.org/2000/svg">
<path d="M36 9.91536L33.7102 8.90187V13.0672L31.0645 11.574V7.40804L23.1267 2.92719V7.09312L20.4805 5.59929V1.434L18 0.0336914V12.0689L36 20.8124V9.91536Z" fill="#296CF2"/>
<path d="M18 0L15.7102 1.546V5.71193L13.0645 7.17585V3.01056L5.1267 7.40298V11.5689L2.48046 13.0335V8.86755L0 10.2405V21.5078L18 12.069V0Z" fill="#1D5AD3"/>
<path d="M36 9.91541L33.7102 11.0835V15.2494L31.0645 16.7133V12.5474L23.1267 16.9405V21.1064L20.4805 22.5703V18.405L18 19.778V31.0447L36 20.8125V9.91541Z" fill="#1D5AD3"/>
<path d="M18 19.7704L15.7102 18.7562V22.9222L13.0645 21.4283V17.2624L5.1267 12.7822V16.9475L2.48046 15.4543V11.2884L0 9.88806V21.9233L18 31.0453V19.7704Z" fill="#296CF2"/>
</svg>
