<svg width="58" height="58" viewBox="0 0 58 58" fill="none" xmlns="http://www.w3.org/2000/svg">
<path d="M29.0002 23.0066C27.8148 23.0066 26.656 23.3581 25.6704 24.0167C24.6848 24.6753 23.9167 25.6113 23.463 26.7064C23.0094 27.8016 22.8907 29.0066 23.122 30.1692C23.3532 31.3318 23.9241 32.3997 24.7622 33.2379C25.6004 34.0761 26.6683 34.6469 27.8309 34.8782C28.9935 35.1094 30.1986 34.9907 31.2937 34.5371C32.3889 34.0835 33.3249 33.3153 33.9834 32.3297C34.642 31.3441 34.9935 30.1853 34.9935 29C34.9935 28.2129 34.8385 27.4336 34.5373 26.7064C34.2361 25.9793 33.7946 25.3186 33.2381 24.7621C32.6816 24.2055 32.0209 23.7641 31.2937 23.4629C30.5666 23.1617 29.7872 23.0066 29.0002 23.0066ZM52.9977 17.0858C52.985 15.2196 52.6413 13.3704 51.9827 11.6241C51.4976 10.3464 50.7471 9.18596 49.7806 8.21951C48.8142 7.25307 47.6538 6.50255 46.376 6.01748C44.6298 5.35885 42.7806 5.01519 40.9143 5.00248C37.7968 4.83331 36.8785 4.83331 29.0002 4.83331C21.1218 4.83331 20.2035 4.83331 17.086 5.00248C15.2197 5.01519 13.3705 5.35885 11.6243 6.01748C10.3465 6.50255 9.18614 7.25307 8.21969 8.21951C7.25325 9.18596 6.50273 10.3464 6.01766 11.6241C5.35903 13.3704 5.01538 15.2196 5.00266 17.0858C4.8335 20.2033 4.8335 21.1216 4.8335 29C4.8335 36.8783 4.8335 37.7966 5.00266 40.9141C5.02868 42.787 5.37187 44.6418 6.01766 46.4C6.50058 47.6719 7.25047 48.8256 8.21683 49.7833C9.17913 50.7556 10.342 51.5061 11.6243 51.9825C13.3705 52.6411 15.2197 52.9848 17.086 52.9975C20.2035 53.1666 21.1218 53.1666 29.0002 53.1666C36.8785 53.1666 37.7968 53.1666 40.9143 52.9975C42.7806 52.9848 44.6298 52.6411 46.376 51.9825C47.6583 51.5061 48.8212 50.7556 49.7835 49.7833C50.7499 48.8256 51.4997 47.6719 51.9827 46.4C52.6407 44.6452 52.9842 42.7882 52.9977 40.9141C53.1668 37.7966 53.1668 36.8783 53.1668 29C53.1668 21.1216 53.1668 20.2033 52.9977 17.0858ZM46.8593 36.4191C46.7818 37.9105 46.4635 39.3795 45.9168 40.7691C45.4477 41.9284 44.7502 42.9815 43.8659 43.8657C42.9816 44.75 41.9286 45.4475 40.7693 45.9166C39.3665 46.4328 37.8893 46.7185 36.3952 46.7625H21.6052C20.111 46.7185 18.6338 46.4328 17.231 45.9166C16.0326 45.4713 14.9503 44.7608 14.0652 43.8383C13.1895 42.9713 12.5133 41.924 12.0835 40.7691C11.5653 39.3678 11.2875 37.8889 11.2618 36.395V21.605C11.2875 20.1111 11.5653 18.6322 12.0835 17.2308C12.5288 16.0324 13.2393 14.9501 14.1618 14.065C15.0326 13.1941 16.0789 12.5185 17.231 12.0833C18.6338 11.5671 20.111 11.2815 21.6052 11.2375H36.3952C37.8893 11.2815 39.3665 11.5671 40.7693 12.0833C41.9678 12.5287 43.05 13.2391 43.9352 14.1616C44.8108 15.0286 45.487 16.076 45.9168 17.2308C46.433 18.6337 46.7187 20.1108 46.7627 21.605V29C46.7627 33.9783 46.9318 34.4858 46.8593 36.395V36.4191ZM42.9927 18.4391C42.7049 17.6585 42.2513 16.9496 41.663 16.3613C41.0747 15.773 40.3658 15.3194 39.5852 15.0316C38.5133 14.6601 37.3844 14.4801 36.2502 14.5H21.7502C20.6101 14.5111 19.4811 14.7238 18.4152 15.1283C17.6465 15.403 16.9451 15.8381 16.3576 16.4048C15.7701 16.9715 15.3099 17.6567 15.0077 18.415C14.6567 19.4913 14.4852 20.618 14.5002 21.75V36.25C14.5241 37.3887 14.7364 38.5156 15.1285 39.585C15.4162 40.3656 15.8699 41.0745 16.4582 41.6628C17.0465 42.2511 17.7554 42.7047 18.536 42.9925C19.5671 43.3717 20.6522 43.5838 21.7502 43.6208H36.2502C37.3902 43.6097 38.5192 43.397 39.5852 42.9925C40.3658 42.7047 41.0747 42.2511 41.663 41.6628C42.2513 41.0745 42.7049 40.3656 42.9927 39.585C43.3971 38.5191 43.6099 37.39 43.621 36.25V21.75C43.6217 20.6088 43.4086 19.4776 42.9927 18.415V18.4391ZM29.0002 38.2316C27.789 38.2317 26.5897 37.9927 25.471 37.5285C24.3523 37.0642 23.3362 36.3839 22.4809 35.5263C21.6256 34.6687 20.9479 33.6509 20.4866 32.531C20.0253 31.4111 19.7895 30.2112 19.7927 29C19.7927 27.1731 20.3347 25.3873 21.3502 23.8686C22.3656 22.35 23.8089 21.1668 25.4971 20.4687C27.1854 19.7707 29.0428 19.5893 30.8342 19.9475C32.6257 20.3057 34.2705 21.1873 35.5607 22.4808C36.8508 23.7743 37.7281 25.4215 38.0816 27.2138C38.435 29.0062 38.2488 30.8631 37.5463 32.5496C36.8439 34.236 35.6569 35.6761 34.1356 36.6876C32.6143 37.6991 30.827 38.2364 29.0002 38.2316ZM38.6668 21.5808C38.1326 21.5243 37.6382 21.272 37.2789 20.8727C36.9196 20.4733 36.7208 19.9551 36.7208 19.4179C36.7208 18.8807 36.9196 18.3625 37.2789 17.9631C37.6382 17.5638 38.1326 17.3115 38.6668 17.255C39.2011 17.3115 39.6954 17.5638 40.0548 17.9631C40.4141 18.3625 40.6129 18.8807 40.6129 19.4179C40.6129 19.9551 40.4141 20.4733 40.0548 20.8727C39.6954 21.272 39.2011 21.5243 38.6668 21.5808Z" fill="#C13584"/>
</svg>
